<?xml version="1.0" standalone="no"?>
<!DOCTYPE svg PUBLIC "-//W3C//DTD SVG 20010904//EN"
 "http://www.w3.org/TR/2001/REC-SVG-20010904/DTD/svg10.dtd">
<svg version="1.0" xmlns="http://www.w3.org/2000/svg"
 width="340.000000pt" height="250.000000pt" viewBox="0 0 340.000000 250.000000"
 preserveAspectRatio="xMidYMid meet">

<g transform="translate(0.000000,250.000000) scale(0.100000,-0.100000)"
fill="#000000" stroke="none">
<path d="M0 2465 c0 -38 26 -50 36 -17 3 9 10 25 15 35 8 14 5 17 -21 17 -28
0 -30 -3 -30 -35z"/>
<path d="M115 2486 c-18 -15 -31 -90 -13 -82 7 3 21 9 31 12 9 4 17 10 17 15
0 5 7 9 15 9 18 0 19 -5 4 -32 -8 -15 -8 -18 0 -14 7 4 9 1 5 -8 -3 -8 -12
-12 -20 -9 -10 4 -14 -3 -14 -21 0 -24 -4 -26 -41 -26 l-41 0 7 -32 8 -33 -30
30 c-16 17 -27 33 -25 38 2 4 -2 7 -7 7 -8 0 -11 -113 -11 -360 l0 -360 29 0
c18 0 35 -8 45 -22 9 -13 14 -17 11 -10 -4 6 1 15 10 18 14 6 14 8 -1 25 -13
14 -15 30 -11 68 6 51 -2 62 -43 65 -8 1 -14 6 -13 12 1 6 4 24 7 40 12 67 47
87 124 71 23 -5 32 -3 32 6 0 22 71 127 85 127 8 0 28 20 45 45 17 25 38 45
47 45 13 0 14 8 8 53 -3 28 -9 75 -11 102 -3 28 -11 55 -19 61 -8 6 -15 17
-15 25 0 8 -23 27 -50 44 -43 25 -51 35 -57 68 -6 38 -6 38 -50 35 -24 -1 -50
-7 -58 -12z m94 -72 c-6 -7 -15 -11 -21 -8 -5 3 -4 12 3 20 6 7 15 11 21 8 5
-3 4 -12 -3 -20z m55 -89 c-4 -8 -16 -15 -28 -15 -21 1 -21 1 -2 15 25 19 37
19 30 0z m-48 -50 c-3 -9 -11 -13 -16 -10 -8 5 -7 11 1 21 14 18 24 11 15 -11z
m-129 -57 c-3 -8 -6 -5 -6 6 -1 11 2 17 5 13 3 -3 4 -12 1 -19z m-7 -72 c0 -3
-4 -8 -10 -11 -5 -3 -10 -1 -10 4 0 6 5 11 10 11 6 0 10 -2 10 -4z m80 -46 c0
-5 -2 -10 -4 -10 -3 0 -8 5 -11 10 -3 6 -1 10 4 10 6 0 11 -4 11 -10z m-5 -80
c4 -6 11 -7 17 -4 6 4 6 -2 -1 -15 -7 -11 -13 -21 -16 -21 -10 0 -34 33 -30
41 8 12 22 11 30 -1z m-105 -55 c0 -9 -6 -12 -15 -9 -8 4 -15 10 -15 15 0 5 7
9 15 9 8 0 15 -7 15 -15z"/>
<path d="M1575 2490 c-283 -117 -292 -121 -415 -203 -102 -68 -282 -251 -354
-361 -131 -197 -213 -410 -242 -622 -3 -27 -8 -51 -9 -53 -2 -1 0 -14 6 -28 6
-16 6 -22 -1 -18 -6 4 -10 -9 -11 -32 -5 -141 -1 -183 17 -183 9 0 12 -5 8
-12 -5 -9 -2 -9 9 1 18 14 24 36 7 26 -10 -6 -7 42 4 52 8 9 27 -8 20 -18 -3
-6 2 -17 12 -24 18 -13 18 -14 2 -15 -19 0 -26 -20 -8 -20 6 0 13 0 18 0 4 0
7 5 7 10 0 6 6 14 13 19 11 6 10 10 -5 15 -17 7 -17 8 0 21 12 9 14 15 7 20
-7 4 -8 11 -2 18 5 7 9 26 8 42 -2 32 12 54 30 48 6 -2 16 8 24 22 7 14 22 25
32 25 10 0 18 4 18 10 0 14 42 50 52 44 11 -7 10 3 -4 25 -9 15 -8 28 5 63 9
24 17 62 18 83 0 22 3 34 6 28 2 -7 13 -13 23 -13 10 0 20 -5 22 -11 9 -26 45
10 62 64 6 18 46 24 46 7 0 -5 7 -7 16 -3 9 3 14 13 11 23 -3 10 5 24 19 35
13 10 24 25 24 34 0 14 2 14 10 1 5 -8 15 -15 22 -15 7 0 13 -7 13 -15 0 -15
13 -30 28 -30 15 0 7 28 -10 34 -15 6 -15 9 -3 16 8 5 18 6 22 4 11 -7 10 1
-3 30 -13 28 -29 25 -29 -5 0 -10 -7 -19 -15 -19 -22 0 -19 11 18 52 l33 37
37 -22 c21 -13 35 -26 31 -30 -4 -4 -1 -7 6 -7 11 0 11 -3 2 -12 -8 -8 -15 -8
-26 1 -12 10 -17 7 -30 -17 -9 -18 -13 -44 -11 -65 3 -20 0 -39 -5 -42 -6 -3
-10 -11 -10 -17 0 -6 6 -5 16 3 24 20 44 19 44 -1 0 -24 -11 -30 -58 -36 -27
-3 -33 -1 -22 6 8 5 10 10 4 10 -13 0 -25 35 -16 45 10 10 11 35 1 35 -5 0 -9
-5 -9 -11 0 -5 -5 -7 -12 -3 -8 5 -9 0 -5 -15 4 -18 2 -22 -16 -19 -13 2 -23
13 -27 28 l-6 25 -8 -25 c-5 -14 -8 -29 -7 -34 1 -4 -6 -14 -15 -21 -12 -8
-15 -18 -9 -31 5 -14 9 -16 12 -5 4 9 11 2 19 -19 10 -22 19 -30 29 -26 9 3
13 2 10 -3 -3 -5 -1 -12 4 -15 13 -9 6 -57 -10 -67 -10 -6 -11 -9 -1 -9 6 0
12 -10 12 -22 0 -20 -1 -21 -20 -3 -13 12 -20 14 -20 5 0 -8 -8 -10 -22 -7
-12 3 -30 2 -40 -4 -14 -7 -20 -6 -24 6 -9 21 -33 19 -27 -3 2 -10 17 -23 33
-29 22 -8 29 -18 32 -44 2 -23 9 -35 21 -37 11 -2 28 -13 38 -23 11 -11 14
-19 7 -17 -13 3 -18 -3 -18 -20 0 -5 11 -14 25 -20 14 -6 25 -7 25 -2 0 5 8 7
18 5 15 -3 17 4 14 54 -3 54 -1 60 29 90 31 32 64 36 53 6 -3 -8 -1 -15 5 -15
6 0 8 -8 4 -17 -6 -16 -5 -16 10 -4 9 7 14 18 10 25 -3 6 3 3 15 -8 11 -10 24
-31 27 -48 4 -16 14 -32 23 -35 13 -6 13 -8 -4 -14 -18 -7 -18 -8 -1 -8 11 -1
21 8 24 20 3 11 9 16 12 11 3 -5 16 -12 29 -16 16 -6 22 -3 22 9 0 8 10 19 23
24 12 5 21 12 19 17 -2 5 2 10 9 13 8 2 10 -2 6 -12 -3 -9 -2 -19 3 -22 5 -3
9 -17 8 -30 -2 -20 -7 -25 -28 -23 -53 4 -60 -14 -34 -93 16 -48 17 -49 36
-32 18 16 19 16 12 -3 -11 -30 -92 -104 -114 -104 -11 0 -20 -4 -20 -10 0 -5
-7 -10 -16 -10 -8 0 -13 -4 -10 -8 5 -9 -10 -24 -53 -54 -32 -22 -38 -52 -10
-45 17 5 18 3 7 -11 -20 -27 -62 -61 -75 -62 -11 0 -45 60 -47 85 -2 17 -79
26 -126 15 -49 -12 -90 -35 -90 -50 0 -6 19 -10 43 -10 23 0 51 -7 61 -15 15
-12 22 -12 27 -3 10 16 15 10 22 -30 6 -30 5 -33 -13 -27 -22 7 -26 -5 -8 -23
9 -9 8 -12 -5 -12 -9 0 -17 -5 -17 -12 0 -9 -3 -9 -11 -1 -14 14 -49 5 -49
-14 0 -8 4 -12 9 -8 11 6 71 -94 71 -119 0 -9 8 -16 20 -16 11 0 20 -4 20 -9
0 -5 9 -12 20 -16 12 -4 24 -21 30 -45 6 -22 22 -52 35 -66 22 -24 27 -25 56
-15 44 15 46 14 15 -10 -28 -22 -34 -39 -14 -39 6 0 22 -9 34 -21 21 -20 25
-20 52 -7 26 13 30 13 40 -1 9 -14 12 -14 26 4 9 11 15 27 15 35 -2 31 1 42
14 37 6 -2 20 0 29 4 14 8 18 1 23 -45 5 -41 11 -53 21 -49 8 3 14 1 14 -4 0
-5 7 -10 15 -10 9 0 14 6 11 12 -2 7 0 18 4 25 5 8 3 28 -6 48 -18 43 -18 52
1 52 8 0 12 6 9 14 -3 8 -1 17 5 20 6 4 8 13 4 21 -3 10 1 15 15 15 31 0 38
21 14 41 -30 24 -28 49 3 49 25 0 74 42 55 48 -17 6 -11 22 8 22 10 0 28 9 40
20 12 11 25 20 31 20 13 0 21 25 15 54 -2 14 0 26 6 26 5 0 10 7 10 15 0 9 -9
15 -22 15 -30 0 -18 9 18 13 17 2 36 7 43 12 9 5 12 3 9 -6 -3 -8 -12 -13 -21
-13 -13 1 -14 -2 -6 -18 8 -16 8 -23 -2 -29 -11 -7 -11 -9 -1 -9 7 0 15 7 18
15 4 8 13 15 22 15 8 0 12 3 9 7 -4 3 -2 11 3 18 7 8 1 18 -20 34 -59 43 -19
73 41 30 16 -11 29 -17 29 -13 0 3 8 0 18 -7 13 -10 12 -8 -3 11 l-20 24 26
-16 c21 -13 26 -14 26 -2 0 8 -6 14 -14 14 -7 0 -13 6 -13 13 0 15 -75 59 -84
50 -3 -3 6 -17 20 -30 14 -12 20 -23 14 -23 -5 0 -18 10 -28 21 -9 12 -24 29
-34 37 -9 8 -14 21 -11 28 3 8 -1 14 -9 14 -18 0 -43 44 -34 59 4 6 2 11 -4
11 -8 0 -8 6 0 20 8 15 8 20 -2 20 -9 0 -9 3 2 10 11 7 11 10 2 10 -7 0 -11 4
-7 9 7 13 -24 42 -38 35 -7 -3 -3 2 7 10 11 9 25 16 30 17 6 0 22 2 36 3 25 3
52 -8 77 -31 7 -6 21 -9 32 -6 12 3 24 -3 35 -18 9 -13 16 -20 16 -16 0 4 14
-8 30 -26 17 -19 30 -44 30 -56 0 -11 5 -21 10 -21 6 0 10 7 10 16 0 17 25 46
33 38 2 -3 1 -21 -3 -40 -10 -44 2 -51 46 -25 44 26 54 27 24 1 -13 -11 -18
-20 -12 -20 7 0 12 -7 12 -15 0 -18 -12 -19 -28 -3 -7 7 -12 8 -12 2 0 -5 14
-20 31 -34 17 -14 37 -31 45 -38 9 -9 14 -10 14 -2 0 6 5 8 11 5 6 -5 5 -11
-6 -18 -13 -11 -12 -15 10 -40 14 -15 30 -27 36 -27 6 0 7 -4 4 -10 -3 -5 -15
-10 -26 -10 -10 0 -26 -8 -35 -19 -16 -18 -18 -18 -65 -1 -27 10 -49 16 -49
14 0 -2 -15 5 -32 16 -18 11 -37 20 -43 20 -5 0 10 -12 35 -27 25 -15 48 -27
52 -25 4 1 4 -6 1 -14 -4 -11 -2 -15 7 -12 18 6 50 -21 43 -37 -6 -16 13 -29
22 -15 10 17 45 12 45 -7 0 -16 14 -10 16 8 1 5 2 14 3 19 0 6 10 10 21 10 13
0 20 7 20 18 0 10 6 24 13 31 10 10 8 11 -7 5 -21 -8 -17 5 12 39 12 13 13 20
4 29 -7 7 -12 22 -12 35 0 13 -5 23 -11 23 -5 0 -8 4 -5 9 4 5 1 11 -6 13 -7
3 -9 11 -4 24 8 18 9 17 19 -6 40 -94 49 -110 61 -110 7 0 18 -10 24 -22 10
-20 11 -21 9 -3 -1 11 3 20 10 20 6 0 15 3 19 7 4 5 15 8 25 8 19 0 31 -44 16
-59 -11 -11 11 -10 31 2 17 11 15 -4 -5 -32 -9 -14 -11 -21 -5 -17 6 3 13 2
17 -4 3 -5 -1 -10 -10 -10 -9 0 -13 -5 -10 -10 4 -6 10 -8 15 -5 5 3 11 1 14
-4 4 -5 14 -8 24 -6 9 1 25 -2 35 -7 11 -5 17 -5 17 1 0 6 11 13 25 17 14 3
25 10 25 15 0 8 47 59 54 59 2 0 6 -9 9 -21 3 -11 14 -23 25 -26 16 -4 22 -17
27 -54 7 -47 25 -60 25 -17 0 14 5 18 15 14 8 -3 15 0 15 7 0 6 11 0 23 -13
19 -20 22 -29 13 -42 -6 -10 -16 -18 -23 -18 -6 0 3 -16 20 -35 17 -19 34 -35
38 -35 13 0 19 33 8 46 -6 7 -9 19 -6 26 2 7 0 21 -5 30 -7 14 -5 16 7 12 9
-4 14 -9 11 -11 -3 -3 1 -12 9 -20 13 -12 17 -12 28 -1 7 7 16 22 19 33 4 16
0 21 -16 23 -20 1 -46 27 -46 45 0 5 14 7 30 4 17 -4 30 -3 30 2 0 4 7 8 15 8
11 0 15 -12 15 -44 0 -47 16 -58 26 -17 5 19 12 24 25 21 12 -3 20 2 25 15 4
15 8 17 14 8 9 -14 15 -6 24 33 5 20 12 27 24 25 22 -5 17 -36 -11 -65 l-20
-23 21 0 c13 0 22 -6 22 -15 0 -33 30 -12 61 43 18 31 43 71 55 87 29 39 84
155 84 177 0 10 9 27 19 37 16 16 17 20 5 25 -16 6 -20 46 -4 46 16 0 28 33
36 98 5 50 4 62 -7 62 -8 0 -49 -34 -93 -76 -75 -73 -79 -75 -107 -64 -18 8
-63 11 -124 8 -105 -5 -111 -3 -137 62 -24 58 2 120 51 120 25 1 25 1 7 15
-20 15 -20 15 -1 29 11 8 23 12 27 9 5 -2 11 4 15 14 4 10 11 22 17 26 6 5 1
5 -11 2 -14 -4 -23 -2 -23 5 0 6 -5 8 -12 4 -6 -4 -8 -3 -5 3 4 6 20 13 36 16
26 6 29 10 25 34 -3 15 -7 29 -8 31 -2 1 3 28 10 60 18 75 18 93 0 70 -7 -10
-16 -18 -21 -18 -12 0 -65 -54 -65 -67 0 -9 -14 -6 -46 7 -25 11 -53 20 -61
20 -10 0 -13 6 -9 16 3 9 6 17 6 18 0 1 14 0 31 -2 22 -3 30 -1 25 7 -4 6 -3
11 3 11 5 0 16 3 25 6 9 3 16 1 16 -5 0 -6 -7 -11 -15 -11 -21 0 -19 -18 3
-22 22 -4 42 33 49 93 4 35 0 56 -18 90 l-23 44 -10 -37 c-6 -20 -14 -40 -18
-44 -14 -13 -71 -15 -80 -2 -5 8 -8 1 -8 -19 0 -36 -23 -46 -34 -16 -6 14 -9
15 -15 4 -7 -10 -13 -11 -30 -2 -12 7 -19 16 -16 21 3 5 -1 12 -9 17 -7 4 -16
17 -18 28 -2 11 -8 -8 -12 -42 -7 -56 -10 -63 -30 -63 -24 0 -29 16 -29 87 0
24 -3 40 -8 37 -5 -3 -9 2 -9 10 0 9 -5 16 -12 16 -11 0 -2 14 10 16 4 0 15 4
24 8 28 12 52 3 59 -24 l7 -25 1 27 c1 31 26 39 81 25 45 -12 140 -21 140 -13
0 3 -16 26 -35 52 -40 52 -42 60 -17 72 24 13 42 4 35 -16 -4 -14 -3 -14 5 -3
8 11 21 5 66 -33 53 -46 55 -47 47 -19 -6 21 -4 32 8 43 14 14 14 15 -6 18
-16 2 -24 14 -32 47 -6 24 -15 47 -21 50 -5 3 -10 14 -10 24 0 10 -9 26 -19
35 -10 10 -22 34 -26 54 -4 20 -12 43 -17 50 -6 7 -8 15 -5 18 13 13 -124 122
-145 116 -5 -1 -8 4 -8 12 0 7 -7 19 -15 26 -8 7 -12 16 -9 21 3 5 -2 9 -10 9
-8 0 -20 8 -25 18 -7 12 -10 13 -11 3 0 -12 -3 -11 -17 1 -10 9 -27 18 -38 21
-18 4 -17 5 3 6 15 1 21 5 16 12 -4 7 5 6 22 -3 16 -8 52 -26 79 -39 28 -13
56 -30 64 -37 7 -7 19 -11 27 -8 7 3 15 0 17 -7 3 -9 7 -9 17 0 10 9 10 15 -3
27 -9 9 -20 16 -25 16 -5 0 -17 9 -27 20 -9 10 -21 18 -25 17 -4 -1 -8 1 -9 6
-1 11 6 9 42 -9 134 -70 357 -284 464 -446 36 -55 58 -66 32 -16 -22 42 -115
162 -178 230 -62 67 -237 208 -259 208 -7 0 -12 4 -12 9 0 14 -195 110 -299
147 l-93 34 -372 -1 c-204 0 -380 -4 -391 -9z m970 -90 c3 -5 2 -10 -4 -10 -5
0 -13 5 -16 10 -3 6 -2 10 4 10 5 0 13 -4 16 -10z m-1035 -30 c0 -5 -5 -10
-11 -10 -5 0 -7 5 -4 10 3 6 8 10 11 10 2 0 4 -4 4 -10z m462 -7 c32 -29 21
-55 -57 -131 -41 -41 -75 -76 -75 -78 0 -2 7 -4 16 -4 24 0 13 -109 -15 -148
-11 -16 -18 -37 -15 -49 3 -11 -1 -25 -10 -32 -9 -8 -16 -25 -16 -40 0 -26
-38 -113 -53 -119 -4 -2 -5 -8 -1 -13 3 -5 -6 -13 -20 -19 -16 -6 -24 -15 -20
-23 3 -8 -13 -34 -34 -58 -65 -73 -106 -122 -137 -164 -16 -22 -35 -46 -42
-53 -7 -7 -13 -18 -13 -24 0 -6 -15 -27 -34 -48 -18 -20 -35 -42 -37 -47 -2
-6 -14 -14 -27 -18 -18 -5 -25 -3 -29 13 -3 12 -11 23 -18 26 -9 3 -12 0 -8
-10 3 -8 -9 -2 -26 13 -17 15 -31 31 -31 36 0 5 -7 15 -15 23 -28 28 -18 74
27 127 41 49 42 50 25 79 -9 15 -14 35 -11 43 6 15 70 32 81 22 10 -11 43 13
43 31 0 10 -14 29 -31 41 l-31 23 -24 -23 c-21 -20 -22 -23 -7 -34 10 -8 12
-14 5 -19 -6 -3 -20 8 -33 25 -20 29 -26 31 -65 26 -46 -5 -54 2 -29 23 8 7
13 15 11 19 -2 3 11 7 30 7 18 1 31 -3 28 -7 -3 -5 0 -9 5 -9 13 0 14 29 3 47
-6 9 -17 10 -41 3 -19 -5 -37 -7 -41 -5 -4 3 -15 -6 -24 -20 -14 -22 -19 -23
-38 -12 -16 10 -22 9 -25 -1 -3 -9 -16 -11 -39 -6 -26 5 -34 3 -34 -9 0 -33
-85 -50 -143 -28 -24 9 -26 14 -17 31 6 11 18 20 27 20 9 0 31 5 49 12 35 12
41 41 13 59 -15 10 -9 11 90 14 34 2 59 8 65 17 13 17 121 60 130 51 13 -14 5
-23 -21 -23 -30 0 -22 -14 14 -24 20 -7 22 -4 22 48 0 30 5 64 11 75 11 22 35
28 45 11 24 -39 53 32 32 78 -9 20 -7 27 13 42 14 11 29 15 34 10 5 -5 15 -6
24 -2 11 4 14 1 9 -10 -9 -24 19 -29 39 -7 9 10 22 19 29 19 16 0 47 -35 38
-43 -3 -4 3 -7 14 -7 11 0 28 9 37 19 20 22 10 33 -33 37 -38 3 -81 22 -81 35
0 7 11 10 29 7 21 -3 28 -1 24 9 -3 7 -16 13 -28 13 -31 0 -56 10 -50 20 3 5
-4 8 -15 7 -11 -1 -20 -5 -20 -9 0 -4 -7 -8 -15 -8 -23 0 -18 28 8 42 l22 12
-25 6 c-29 8 -40 3 -22 -9 10 -6 10 -11 -3 -21 -13 -11 -15 -10 -9 4 3 9 1 16
-5 16 -6 0 -11 7 -11 16 0 13 7 15 34 11 28 -4 34 -3 29 9 -3 9 2 14 16 14 12
0 21 5 21 10 0 14 20 12 54 -5 15 -8 37 -15 47 -15 11 0 23 -10 28 -24 13 -31
28 -36 127 -36 81 0 86 1 112 29 15 17 44 37 64 45 20 9 39 20 43 26 9 14 16
13 37 -7z m492 1 c6 -15 4 -15 -11 -3 -10 7 -20 15 -22 16 -2 2 3 3 11 3 9 0
19 -7 22 -16z m150 -5 c-8 -14 -24 -10 -24 6 0 9 6 12 15 9 8 -4 12 -10 9 -15z
m-224 -66 c0 -5 19 -9 42 -10 24 -2 52 -3 64 -4 28 -2 51 -38 32 -50 -7 -5 -8
-9 -3 -9 6 0 18 9 28 20 9 11 21 20 27 20 13 0 8 -22 -8 -35 -7 -6 -14 -18
-15 -26 -2 -9 -10 -24 -20 -33 -9 -10 -17 -26 -17 -37 0 -10 -4 -19 -10 -19
-5 0 -10 5 -10 11 0 8 -4 9 -13 0 -8 -6 -17 -8 -20 -4 -4 3 -7 1 -7 -5 0 -7 5
-12 12 -12 6 0 2 -9 -10 -20 -17 -16 -22 -31 -21 -68 1 -26 6 -54 10 -63 9
-17 -16 -109 -29 -109 -27 0 -94 27 -131 53 -24 16 -41 25 -38 20 4 -6 -2 -13
-13 -16 -11 -3 -18 -2 -16 2 3 4 -8 6 -23 3 -16 -2 -38 1 -50 7 -19 11 -21 9
-21 -14 0 -29 -7 -32 -27 -7 -8 9 -12 11 -8 5 4 -8 0 -13 -10 -13 -9 0 -13 5
-10 10 3 6 1 10 -4 10 -6 0 -11 -4 -11 -9 0 -5 -14 -14 -30 -20 -23 -8 -29
-15 -27 -32 4 -25 -20 -59 -40 -59 -16 0 -16 2 -1 37 6 15 13 44 14 63 2 19 8
36 13 38 7 2 5 10 -4 19 -8 8 -13 18 -10 23 3 5 1 19 -4 33 -6 16 -6 28 2 36
14 14 110 14 124 0 8 -8 15 -6 25 10 20 32 31 25 13 -8 -14 -28 -14 -30 5 -36
11 -4 20 -15 20 -26 0 -27 29 -24 39 4 10 25 -7 97 -22 97 -12 0 15 25 36 33
12 5 17 1 17 -13 0 -11 5 -20 11 -20 6 0 8 8 4 19 -4 13 0 20 15 24 11 3 20
13 20 22 0 30 29 73 55 79 14 4 25 14 25 23 0 15 2 15 13 2 6 -8 11 -12 10
-10 -1 2 2 12 8 22 8 16 6 19 -14 19 -12 0 -28 5 -35 12 -8 8 -15 8 -29 -3
-16 -13 -17 -12 -4 4 13 17 81 25 81 10z m-120 -67 l29 -5 -37 -42 c-20 -22
-54 -50 -74 -60 -37 -19 -57 -25 -45 -13 4 4 -3 20 -14 35 -16 23 -24 27 -38
19 -15 -8 -18 -5 -17 13 1 14 8 22 21 23 11 1 26 2 33 3 6 1 20 9 30 19 25 24
76 41 80 26 2 -6 16 -14 32 -18z m-890 -17 c0 -5 -4 -9 -8 -9 -5 0 -9 7 -9 15
0 8 4 12 9 9 4 -3 8 -9 8 -15z m612 -5 c-3 -17 -8 -22 -15 -15 -11 11 -3 41
11 41 5 0 7 -12 4 -26z m-618 -36 c-3 -4 -12 -8 -20 -8 -8 0 -14 4 -14 8 0 4
9 8 19 8 11 0 17 -4 15 -8z m1246 -9 c0 -5 -7 -9 -15 -9 -9 0 -12 6 -9 15 6
15 24 11 24 -6z m90 -119 c0 -5 -4 -10 -10 -10 -5 0 -10 5 -10 10 0 6 5 10 10
10 6 0 10 -4 10 -10z m-24 -65 c-4 -26 -44 -65 -61 -58 -10 3 -24 -3 -36 -16
-24 -25 -25 -25 -33 -6 -6 17 40 45 74 45 14 0 24 9 31 30 11 30 29 34 25 5z
m-816 -85 c0 -5 -4 -10 -10 -10 -5 0 -10 5 -10 10 0 6 5 10 10 10 6 0 10 -4
10 -10z m253 -34 c3 3 22 7 41 8 33 1 36 -1 36 -26 0 -32 -20 -37 -46 -11 -10
10 -29 16 -50 15 -26 -2 -32 1 -28 13 4 11 11 12 24 5 9 -5 20 -7 23 -4z m171
5 c6 -9 -16 -21 -39 -21 -7 0 -15 7 -19 15 -4 11 2 15 24 15 16 0 31 -4 34 -9z
m296 -13 c0 -13 -23 -5 -28 10 -2 7 2 10 12 6 9 -3 16 -11 16 -16z m-728 -23
c-4 -25 -13 -31 -25 -19 -8 8 10 44 22 44 5 0 6 -11 3 -25z m443 -3 c14 -1 25
-7 25 -13 0 -5 -4 -7 -10 -4 -6 3 -7 -1 -4 -9 3 -9 2 -16 -4 -16 -6 0 -12 6
-14 13 -3 6 -18 13 -34 13 -52 3 -55 4 -50 13 5 7 19 8 91 3z m91 -24 c4 -7 3
-8 -5 -4 -6 4 -20 2 -29 -6 -15 -12 -16 -11 -3 5 16 20 27 22 37 5z m-214 -20
c-7 -7 -12 -8 -12 -2 0 6 3 14 7 17 3 4 9 5 12 2 2 -3 -1 -11 -7 -17z m-42 2
c0 -5 -4 -10 -10 -10 -5 0 -10 5 -10 10 0 6 5 10 10 10 6 0 10 -4 10 -10z
m134 -23 c-2 -23 44 -23 62 1 13 16 14 16 8 0 -4 -12 -1 -18 10 -18 9 0 16 -7
16 -15 0 -8 -6 -12 -14 -9 -15 6 -29 -53 -14 -62 4 -3 8 0 8 5 0 6 10 11 23
10 12 0 17 -3 10 -5 -7 -3 -9 -12 -6 -21 5 -12 3 -14 -8 -8 -7 5 -21 10 -31
10 -13 1 -15 -2 -7 -16 12 -23 11 -29 -2 -29 -5 0 -8 4 -4 9 3 5 1 12 -5 16
-5 3 -10 -1 -10 -10 0 -30 -25 -9 -40 33 -11 33 -19 42 -38 42 -40 0 -133 -31
-139 -46 -4 -12 -16 -13 -52 -8 -25 3 -49 9 -54 13 -11 11 169 91 204 91 10 0
23 9 29 21 14 25 56 23 54 -4z m-1184 -21 c-16 -16 -22 -18 -32 -8 -10 10 -10
15 1 22 8 5 23 8 33 7 17 -1 17 -2 -2 -21z m1310 20 c0 -3 -4 -8 -10 -11 -5
-3 -10 -1 -10 4 0 6 5 11 10 11 6 0 10 -2 10 -4z m-430 -36 c0 -5 -7 -10 -16
-10 -8 0 -12 5 -9 10 3 6 10 10 16 10 5 0 9 -4 9 -10z m50 -5 c0 -8 -4 -15
-10 -15 -5 0 -7 7 -4 15 4 8 8 15 10 15 2 0 4 -7 4 -15z m-753 -87 c-3 -8 -6
-5 -6 6 -1 11 2 17 5 13 3 -3 4 -12 1 -19z m1568 -8 c3 -5 1 -10 -4 -10 -6 0
-11 5 -11 10 0 6 2 10 4 10 3 0 8 -4 11 -10z m-1095 -10 c0 -5 -2 -10 -4 -10
-3 0 -8 5 -11 10 -3 6 -1 10 4 10 6 0 11 -4 11 -10z m-520 -35 c-5 -6 -5 -17
0 -25 12 -18 13 -47 3 -36 -5 4 -8 11 -9 14 0 4 -4 14 -7 22 -4 8 -5 24 -3 35
3 11 5 22 5 25 1 3 5 -2 11 -10 5 -8 5 -19 0 -25z m64 13 c-7 -11 -34 -10 -34
1 0 6 9 9 19 8 11 0 17 -5 15 -9z m604 -18 c2 0 0 5 -3 10 -3 6 4 10 17 10 19
0 20 -2 8 -10 -28 -19 9 -30 46 -14 38 16 56 18 34 4 -26 -16 2 -33 34 -20 15
5 56 10 91 10 35 0 67 5 70 10 9 15 42 12 48 -4 8 -20 -71 -93 -118 -109 -22
-8 -58 -17 -80 -21 -22 -4 -56 -12 -75 -18 -34 -11 -45 -13 -65 -17 -5 -2 -14
-9 -18 -17 -10 -17 -60 -18 -90 -2 -20 10 -21 10 -8 -5 7 -9 11 -24 7 -32 -3
-9 -2 -13 4 -10 6 3 10 2 10 -4 0 -5 -4 -13 -10 -16 -19 -11 -10 -34 21 -56
28 -20 32 -20 40 -6 5 9 23 22 39 30 27 14 32 14 53 -3 13 -10 37 -22 53 -25
20 -5 25 -4 15 3 -8 6 -11 17 -8 26 4 11 1 16 -10 16 -13 0 -14 3 -5 12 9 9
15 8 27 -8 8 -10 15 -27 15 -36 0 -11 8 -18 21 -18 15 0 19 5 14 19 -3 10 1
23 9 30 8 7 13 18 10 26 -3 7 0 16 5 20 6 3 9 11 6 16 -4 5 1 9 11 9 11 0 15
-6 11 -19 -3 -14 -1 -18 9 -14 13 5 19 -8 15 -31 -3 -16 11 -46 19 -41 4 3 6
-4 3 -15 -7 -28 -17 -25 -36 13 -15 31 -16 31 -23 10 -3 -13 -11 -23 -16 -23
-5 0 -7 -4 -4 -8 3 -5 -2 -22 -10 -38 -9 -16 -14 -41 -12 -56 3 -17 -1 -29
-10 -33 -20 -7 -21 -7 -15 15 3 10 -2 26 -11 35 -14 15 -16 15 -17 1 -1 -9 -3
-20 -4 -26 -1 -5 -3 -13 -4 -17 0 -4 -8 2 -17 13 -14 17 -15 17 -10 1 3 -11 2
-15 -4 -12 -5 3 -15 -5 -22 -19 -6 -14 -16 -26 -21 -26 -6 0 -3 -8 6 -18 10
-10 14 -22 10 -26 -11 -11 -10 -40 2 -48 6 -4 2 -8 -7 -8 -17 0 -23 16 -19 48
1 6 -3 12 -10 12 -6 0 -9 8 -6 19 3 15 0 17 -16 13 -13 -3 -18 -1 -13 6 6 11
-18 42 -34 42 -4 0 -6 -8 -3 -19 3 -10 0 -22 -7 -26 -7 -5 -10 2 -7 22 2 15 0
34 -6 41 -10 13 -5 14 41 15 23 0 31 22 10 30 -8 4 -7 6 4 6 10 1 19 -10 23
-28 6 -28 8 -29 36 -19 29 10 37 31 20 57 -6 9 -11 10 -15 2 -4 -6 -1 -11 6
-11 10 0 10 -2 -1 -9 -8 -5 -20 -7 -28 -4 -12 5 -11 8 2 23 8 9 12 19 9 23 -3
3 -47 3 -97 -1 -117 -7 -154 -5 -198 13 -10 3 -20 2 -24 -4 -3 -7 0 -8 9 -5 9
3 16 1 16 -5 0 -6 -11 -11 -25 -11 -18 0 -25 5 -25 20 0 11 5 20 11 20 6 0 3
7 -5 16 -9 8 -20 13 -25 10 -10 -7 -24 22 -16 34 3 4 -2 10 -10 14 -42 16 12
72 59 60 14 -3 23 -10 20 -15 -5 -8 18 -14 40 -10 4 1 14 -6 21 -15 11 -15 13
-14 19 11 4 15 3 32 -2 37 -18 18 70 140 95 131 7 -2 21 1 33 7 16 9 18 15 10
30 -15 28 -13 29 22 19 18 -5 34 -9 36 -9z m452 -13 c18 -21 20 -26 7 -21 -13
5 -16 2 -11 -10 4 -10 1 -16 -8 -16 -8 0 -23 -9 -33 -20 -23 -25 -39 -26 -25
-1 6 11 6 21 1 23 -5 2 -12 15 -16 29 -6 23 -2 27 27 36 18 5 33 9 33 9 0 -1
11 -14 25 -29z m-1404 -26 c-7 -11 -74 -26 -82 -18 -5 5 78 36 85 31 1 -1 0
-7 -3 -13z m1516 -3 c-7 -7 -12 -8 -12 -2 0 6 3 14 7 17 3 4 9 5 12 2 2 -3 -1
-11 -7 -17z m-77 -18 c3 -5 1 -10 -4 -10 -6 0 -11 5 -11 10 0 6 2 10 4 10 3 0
8 -4 11 -10z m315 0 c0 -5 -8 -10 -17 -10 -15 0 -16 2 -3 10 19 12 20 12 20 0z
m-354 -35 c-21 -16 -32 -13 -21 4 3 6 14 11 23 11 15 -1 15 -2 -2 -15z m341
-19 c12 -19 13 -46 2 -46 -5 0 -7 -5 -4 -10 4 -6 -7 -13 -25 -16 -17 -4 -35
-15 -40 -24 -7 -12 -17 -16 -31 -13 -12 4 -25 0 -29 -7 -10 -16 -49 -21 -45
-6 6 28 18 45 38 51 19 6 20 8 5 12 -11 3 -18 14 -18 29 0 14 4 23 9 20 5 -3
14 1 21 9 7 8 16 12 21 9 5 -3 16 -1 25 4 19 11 62 4 71 -12z m-1617 4 c0 -5
-2 -10 -4 -10 -3 0 -8 5 -11 10 -3 6 -1 10 4 10 6 0 11 -4 11 -10z m1200 -21
c0 -5 -4 -9 -8 -9 -5 0 -9 7 -9 15 0 8 4 12 9 9 4 -3 8 -9 8 -15z m-615 -29
c-9 -14 -25 5 -25 30 0 12 3 12 16 -2 9 -9 13 -21 9 -28z m1075 7 c0 -5 -4 -5
-10 -2 -5 3 -10 14 -10 23 0 15 2 15 10 2 5 -8 10 -19 10 -23z m137 -10 c5
-35 12 -49 22 -42 5 3 12 1 16 -5 3 -5 0 -10 -7 -10 -7 0 -23 -3 -35 -6 -17
-5 -23 -2 -23 10 0 9 -7 16 -15 16 -21 0 -15 31 10 52 23 19 28 16 32 -15z
m-534 16 c-7 -2 -19 -2 -25 0 -7 3 -2 5 12 5 14 0 19 -2 13 -5z m-1198 -13 c3
-5 1 -10 -4 -10 -6 0 -11 5 -11 10 0 6 2 10 4 10 3 0 8 -4 11 -10z m1175 -10
c0 -5 -5 -10 -11 -10 -5 0 -7 5 -4 10 3 6 8 10 11 10 2 0 4 -4 4 -10z m-1133
-63 c-13 -42 -27 -50 -23 -13 2 23 25 60 32 54 1 -2 -3 -20 -9 -41z m992 14
c-15 -5 -22 6 -14 19 6 9 10 9 16 -1 5 -8 4 -15 -2 -18z m92 20 c7 11 9 10 9
-3 0 -13 7 -16 28 -12 26 4 26 3 8 -11 -11 -8 -24 -15 -29 -15 -4 0 -5 -4 -2
-10 3 -5 4 -10 1 -10 -5 0 -36 60 -35 69 0 3 3 0 6 -8 5 -11 7 -11 14 0z
m-181 -47 c0 -3 -5 -15 -11 -26 -8 -15 -13 -17 -19 -8 -4 7 -3 19 3 26 12 14
27 18 27 8z m415 -24 c33 -7 70 -12 83 -11 12 0 22 -3 22 -8 0 -5 21 -20 48
-32 33 -17 42 -25 29 -27 -10 -2 -27 4 -37 13 -17 16 -19 15 -22 -7 -2 -15
-10 -23 -22 -23 -11 0 -21 -5 -23 -11 -2 -7 -12 -10 -22 -7 -16 4 -19 -2 -19
-36 -1 -47 -20 -90 -32 -71 -6 9 -12 9 -29 1 -11 -7 -21 -10 -22 -9 -8 36 -4
68 7 68 8 0 14 4 14 10 0 14 -36 31 -54 24 -17 -7 -25 19 -24 76 1 19 -3 43
-7 54 -9 21 -15 21 110 -4z m-198 -32 c-3 -10 -17 -12 -48 -9 -33 4 -37 6 -17
9 14 2 32 10 39 18 14 17 35 3 26 -18z m-910 -25 c-2 -10 2 -30 10 -45 7 -15
9 -29 4 -32 -5 -4 -12 0 -15 6 -5 10 -7 10 -12 1 -9 -21 -40 -15 -40 7 0 14 5
18 17 15 14 -5 16 -1 12 15 -3 11 0 27 7 35 16 20 22 19 17 -2z m-298 -50 c1
-7 -8 -13 -19 -13 -15 0 -20 7 -20 29 0 54 35 39 39 -16z m1208 17 c29 0 33 3
24 14 -9 11 -6 12 16 8 38 -7 42 -17 26 -66 l-15 -43 -71 -7 c-40 -4 -100 -8
-134 -8 -45 -1 -63 -5 -63 -15 0 -7 -8 -13 -17 -13 -14 0 -13 4 6 24 12 13 21
30 19 37 -2 9 7 15 25 17 27 3 35 16 17 27 -19 12 -10 25 14 19 18 -4 28 0 40
17 12 18 18 21 28 11 17 -17 38 -15 39 6 1 11 3 9 6 -5 4 -19 11 -23 40 -23z
m-783 -14 c6 16 8 16 27 -3 27 -26 17 -73 -15 -73 -21 1 -21 1 -2 15 19 14 18
15 -17 15 -35 0 -37 2 -37 32 0 30 1 30 19 14 17 -16 19 -16 25 0z m250 -11
c5 0 11 -5 13 -11 2 -7 -5 -10 -20 -7 -13 3 -24 11 -24 18 0 8 5 11 11 7 6 -4
15 -7 20 -7z m-34 -27 c0 -5 -15 -8 -32 -8 l-33 1 24 20 c19 15 26 17 32 7 5
-7 9 -16 9 -20z m902 13 c12 7 25 6 41 -3 23 -13 37 -16 75 -20 12 -1 22 -8
22 -15 0 -19 -19 -26 -35 -13 -22 19 -18 -4 6 -31 12 -13 32 -37 46 -54 14
-16 22 -24 18 -17 -3 6 -4 12 -1 12 3 0 10 -10 17 -21 6 -13 7 -19 1 -15 -6 3
-13 0 -16 -6 -3 -9 -8 -8 -16 5 -6 10 -23 22 -36 27 -15 6 -24 18 -24 30 0 28
-20 48 -42 42 -11 -3 -18 1 -18 11 0 23 -28 43 -42 29 -17 -17 -31 -15 -24 4
4 9 1 24 -6 33 -10 13 -10 14 2 4 9 -8 19 -9 32 -2z m-2025 -83 c-3 -7 -5 -2
-5 12 0 14 2 19 5 13 2 -7 2 -19 0 -25z m1073 22 c0 -5 -5 -10 -11 -10 -5 0
-7 5 -4 10 3 6 8 10 11 10 2 0 4 -4 4 -10z m-144 -22 c-1 -13 -7 -23 -16 -23
-8 0 -16 10 -18 23 -3 16 2 22 16 22 14 0 19 -7 18 -22z m481 -4 c-9 -9 -28 6
-21 18 4 6 10 6 17 -1 6 -6 8 -13 4 -17z m548 6 c-3 -5 -1 -10 5 -10 13 0 70
-57 70 -70 0 -12 -54 17 -75 40 -15 17 -15 50 0 50 4 0 3 -4 0 -10z m-1115
-25 c0 -8 -4 -15 -10 -15 -5 0 -10 7 -10 15 0 8 5 15 10 15 6 0 10 -7 10 -15z
m710 5 c0 -5 -5 -10 -11 -10 -5 0 -7 5 -4 10 3 6 8 10 11 10 2 0 4 -4 4 -10z
m150 -25 c0 -8 -4 -15 -10 -15 -5 0 -10 7 -10 15 0 8 5 15 10 15 6 0 10 -7 10
-15z m170 -70 c3 -88 2 -93 -10 -75 -16 24 -10 164 5 148 2 -2 4 -35 5 -73z
m200 65 c0 -5 -4 -10 -10 -10 -5 0 -10 5 -10 10 0 6 5 10 10 10 6 0 10 -4 10
-10z m-1157 -65 c-3 -34 -7 -38 -30 -31 -20 7 -26 46 -9 58 10 7 -15 13 -37 9
-5 -1 -6 3 -3 8 4 6 21 5 44 -3 31 -12 37 -18 35 -41z m521 24 c-2 -4 2 -10 8
-13 7 -3 2 -3 -12 0 -37 9 -49 25 -18 22 15 -1 25 -5 22 -9z m686 -9 c0 -5 -2
-10 -4 -10 -3 0 -8 5 -11 10 -3 6 -1 10 4 10 6 0 11 -4 11 -10z m426 -75 c-5
-14 -9 -15 -21 -5 -12 10 -13 16 -4 27 15 18 34 1 25 -22z m-371 5 c-3 -5 6
-17 20 -28 27 -22 34 -62 10 -62 -8 0 -15 4 -15 8 0 5 -9 18 -20 30 -12 12
-17 22 -12 22 5 0 7 12 4 26 -3 19 -1 25 7 20 6 -4 9 -11 6 -16z m-1135 -6 c0
-17 -16 -34 -32 -34 -11 0 -28 -5 -39 -11 -11 -6 -25 -8 -32 -6 -7 2 7 12 31
22 23 9 42 20 42 24 0 4 7 8 15 8 8 0 15 -1 15 -3z m-134 -52 c-10 -2 -26 3
-35 12 -15 15 -13 16 19 4 26 -9 30 -13 16 -16z m1244 8 c8 -5 11 -10 7 -10
-5 0 -1 -7 8 -16 26 -26 7 -30 -20 -4 -35 33 -32 54 5 30z m-677 -30 c3 -11 2
-20 -3 -20 -4 0 -10 9 -13 20 -3 11 -2 20 3 20 4 0 10 -9 13 -20z m-502 -107
c18 -15 33 -17 24 -3 -3 6 1 7 9 4 18 -7 21 -20 7 -28 -5 -3 -12 -18 -16 -33
-11 -46 -38 -102 -51 -107 -7 -3 -30 1 -51 9 -21 7 -57 18 -80 24 -37 10 -43
15 -43 39 0 16 -5 33 -11 39 -8 8 -6 15 10 25 11 7 21 16 21 21 0 4 -4 5 -10
2 -6 -4 -7 1 -3 12 12 33 16 36 29 18 8 -10 17 -15 21 -10 5 4 2 10 -4 12 -23
8 -14 22 20 31 26 7 39 4 72 -17 22 -14 47 -31 56 -38z m84 47 c3 -5 1 -10 -4
-10 -6 0 -11 5 -11 10 0 6 2 10 4 10 3 0 8 -4 11 -10z m721 -32 c-1 -13 -7
-23 -12 -23 -5 0 -10 10 -12 23 -2 15 2 22 12 22 11 0 15 -7 12 -22z m-221 -6
c0 -18 -20 -15 -23 4 -3 10 1 15 10 12 7 -3 13 -10 13 -16z m895 -51 c14 -26
13 -41 -3 -41 -24 0 -51 26 -44 44 9 22 34 20 47 -3z m-290 -31 l25 -20 -27 0
c-39 0 -58 10 -58 30 0 22 24 18 60 -10z m160 26 c0 -2 -8 -10 -17 -17 -16
-13 -17 -12 -4 4 13 16 21 21 21 13z m-1790 -27 c0 -14 -16 -11 -29 5 -10 12
-8 13 8 9 12 -3 21 -9 21 -14z m1300 -9 c0 -5 -5 -10 -11 -10 -5 0 -7 5 -4 10
3 6 8 10 11 10 2 0 4 -4 4 -10z m-30 -10 c0 -5 -4 -10 -10 -10 -5 0 -10 5 -10
10 0 6 5 10 10 10 6 0 10 -4 10 -10z m-1129 -17 c15 -3 32 -15 39 -28 10 -18
9 -28 -6 -56 -10 -19 -17 -39 -16 -46 1 -6 -2 -14 -8 -18 -5 -3 -10 -14 -10
-23 0 -15 2 -15 10 -2 7 11 12 12 21 3 18 -18 -11 -88 -36 -88 -14 0 -19 6
-17 20 4 20 3 20 -11 0 -8 -10 -13 -25 -10 -31 3 -8 -2 -11 -16 -7 -16 4 -18
9 -11 23 5 9 7 20 4 23 -3 3 0 15 8 26 8 12 17 18 21 15 3 -3 3 3 0 15 -3 12
-8 21 -11 21 -2 0 -24 -18 -48 -40 -43 -40 -64 -49 -64 -30 0 6 7 10 17 10 15
0 15 2 -1 19 -17 18 -17 20 1 30 17 10 17 10 1 11 -10 0 -18 -5 -18 -11 0 -5
-4 -7 -10 -4 -5 3 -10 18 -10 33 0 19 3 23 9 13 11 -17 51 -5 51 16 0 11 -6
14 -22 9 -13 -3 -31 -6 -40 -6 -12 0 -15 -5 -11 -17 4 -11 3 -14 -5 -9 -7 4
-12 2 -12 -3 0 -6 -5 -11 -12 -11 -9 0 -9 3 0 12 7 7 12 19 12 28 -1 12 -3 12
-11 -3 -6 -9 -14 -15 -20 -12 -10 7 34 55 51 55 6 0 16 11 22 25 8 17 17 24
29 20 9 -3 32 3 51 15 18 11 40 17 48 14 8 -4 27 -9 41 -11z m1759 -4 c0 -5
-7 -9 -15 -9 -15 0 -20 12 -9 23 8 8 24 -1 24 -14z m-1989 -62 c-10 -9 -11 -8
-5 6 3 10 9 15 12 12 3 -3 0 -11 -7 -18z m59 -127 c0 -5 -7 -7 -15 -4 -8 4
-15 8 -15 10 0 2 7 4 15 4 8 0 15 -4 15 -10z m60 -49 c0 -6 -4 -13 -10 -16 -5
-3 -10 1 -10 9 0 9 5 16 10 16 6 0 10 -4 10 -9z m123 -38 c-7 -2 -19 -2 -25 0
-7 3 -2 5 12 5 14 0 19 -2 13 -5z m-73 -7 c0 -3 -4 -8 -10 -11 -5 -3 -10 -1
-10 4 0 6 5 11 10 11 6 0 10 -2 10 -4z m177 -22 c-3 -3 -12 -4 -19 -1 -8 3 -5
6 6 6 11 1 17 -2 13 -5z"/>
<path d="M1473 2314 c1 -22 27 -54 27 -34 0 7 7 4 16 -4 8 -9 26 -16 40 -16
l25 0 -23 30 c-19 27 -58 45 -43 20 3 -5 1 -10 -4 -10 -6 0 -11 5 -11 11 0 5
-4 8 -9 5 -5 -4 -11 0 -14 6 -3 7 -5 4 -4 -8z"/>
<path d="M1390 2110 c-16 -11 -15 -11 17 -15 14 -1 20 2 16 11 -6 16 -13 17
-33 4z"/>
<path d="M1728 2072 c-73 -56 -148 -96 -148 -78 0 8 6 16 13 19 6 2 8 8 4 13
-5 5 -26 -1 -47 -14 -21 -12 -47 -22 -57 -22 -17 1 -17 2 1 15 23 18 17 19
-19 5 -18 -7 -33 -7 -47 1 -16 9 -19 8 -13 -1 6 -10 1 -12 -19 -8 -32 6 -35
-8 -4 -18 l23 -7 -25 -10 c-24 -10 -24 -11 -3 -14 24 -5 54 -33 34 -33 -21 0
-11 -15 28 -42 37 -26 38 -29 33 -73 -4 -36 -2 -45 11 -45 9 0 17 10 19 22 2
11 11 22 20 24 9 1 49 18 87 38 39 20 73 36 75 36 3 0 6 -8 8 -17 3 -14 8 -10
22 16 10 18 13 30 7 27 -6 -4 -11 -2 -11 3 0 6 4 11 9 11 5 0 11 7 15 15 3 8
2 14 -2 13 -4 -1 -16 1 -28 5 -28 10 -21 58 15 96 34 37 54 61 50 60 -2 0 -25
-17 -51 -37z m-133 -162 c-3 -5 -11 -10 -16 -10 -6 0 -7 5 -4 10 3 6 11 10 16
10 6 0 7 -4 4 -10z m102 -12 c-3 -8 -6 -5 -6 6 -1 11 2 17 5 13 3 -3 4 -12 1
-19z"/>
<path d="M1670 1710 c-9 -6 -10 -10 -3 -10 6 0 15 5 18 10 8 12 4 12 -15 0z"/>
<path d="M1415 1630 c4 -6 11 -8 16 -5 14 9 11 15 -7 15 -8 0 -12 -5 -9 -10z"/>
<path d="M2510 2181 c0 -5 9 -7 20 -4 11 3 20 7 20 9 0 2 -9 4 -20 4 -11 0
-20 -4 -20 -9z"/>
<path d="M2350 2164 c0 -8 5 -12 10 -9 6 4 8 11 5 16 -9 14 -15 11 -15 -7z"/>
<path d="M2300 2140 c-13 -8 -13 -10 2 -10 9 0 20 5 23 10 8 13 -5 13 -25 0z"/>
<path d="M1888 1433 c7 -3 16 -2 19 1 4 3 -2 6 -13 5 -11 0 -14 -3 -6 -6z"/>
<path d="M1716 1375 c-2 -7 4 -15 14 -18 10 -3 21 1 24 8 2 7 -4 15 -14 18
-10 3 -21 -1 -24 -8z"/>
<path d="M1720 1325 c-7 -9 -19 -14 -26 -11 -7 3 -15 -2 -18 -10 -9 -23 -8
-24 25 -24 22 0 30 4 26 14 -3 7 0 19 6 25 6 6 8 13 5 16 -3 3 -11 -2 -18 -10z"/>
<path d="M1755 1310 c-3 -5 -1 -10 4 -10 6 0 11 5 11 10 0 6 -2 10 -4 10 -3 0
-8 -4 -11 -10z"/>
<path d="M1895 1250 c4 -6 11 -8 16 -5 14 9 11 15 -7 15 -8 0 -12 -5 -9 -10z"/>
<path d="M1945 1230 c-3 -5 -1 -10 4 -10 6 0 11 5 11 10 0 6 -2 10 -4 10 -3 0
-8 -4 -11 -10z"/>
<path d="M1978 1214 c5 -29 8 -30 15 -5 3 11 -1 22 -8 24 -8 4 -10 -3 -7 -19z"/>
<path d="M2396 1249 c3 -5 12 -9 20 -9 8 0 14 -6 14 -13 0 -18 32 -47 51 -47
11 1 10 4 -3 14 -10 7 -18 25 -18 39 0 22 -4 25 -35 25 -19 0 -32 -4 -29 -9z"/>
<path d="M2577 1241 c-4 -17 -3 -21 5 -13 5 5 8 16 6 23 -3 8 -7 3 -11 -10z"/>
<path d="M1110 560 c0 -5 5 -10 11 -10 5 0 7 5 4 10 -3 6 -8 10 -11 10 -2 0
-4 -4 -4 -10z"/>
<path d="M1176 544 c-11 -7 -17 -16 -15 -19 3 -3 14 2 25 9 10 8 17 17 14 19
-3 3 -14 -1 -24 -9z"/>
<path d="M1199 493 c-13 -16 -12 -17 4 -4 16 13 21 21 13 21 -2 0 -10 -8 -17
-17z"/>
<path d="M2985 2457 c50 -24 124 -59 165 -77 41 -19 104 -51 140 -71 36 -20
75 -40 88 -44 23 -7 23 -6 8 22 -9 19 -36 40 -78 60 -74 36 -163 64 -174 55
-4 -4 -4 -2 -1 5 8 13 -50 53 -77 53 -9 0 -16 4 -16 8 0 10 -82 32 -118 32
-20 0 -4 -11 63 -43z"/>
<path d="M10 2381 c-14 -28 -14 -29 22 -27 34 2 49 23 27 37 -22 14 -37 11
-49 -10z"/>
<path d="M2735 2250 c-3 -5 3 -14 14 -19 25 -14 28 -14 28 3 0 16 -34 29 -42
16z"/>
<path d="M2800 2220 c-9 -6 -10 -10 -3 -10 6 0 15 5 18 10 8 12 4 12 -15 0z"/>
<path d="M355 2022 c-3 -17 -29 -51 -61 -81 -30 -29 -52 -56 -49 -61 3 -6 0
-8 -7 -5 -21 8 -32 -6 -53 -65 -22 -63 -26 -160 -7 -183 9 -11 25 -14 55 -10
22 2 45 7 51 10 5 3 6 1 2 -5 -3 -6 -2 -13 3 -17 16 -9 50 17 61 49 13 37 13
36 -5 30 -22 -9 -18 12 5 29 14 9 21 30 26 71 7 56 6 58 -16 54 -17 -2 -26
-14 -35 -46 -17 -57 -32 -74 -55 -62 -15 8 -19 5 -24 -16 -9 -32 -30 -26 -34
10 -2 18 0 26 7 22 7 -5 9 3 5 21 -4 22 1 35 20 56 15 16 24 33 20 38 -3 6 3
13 14 16 14 3 18 11 15 24 -5 20 -5 20 30 2 20 -10 37 -24 37 -30 0 -7 5 -13
10 -13 6 0 10 28 10 64 0 35 3 78 6 95 9 41 -22 44 -31 3z"/>
<path d="M3090 2030 c0 -5 5 -10 11 -10 5 0 7 5 4 10 -3 6 -8 10 -11 10 -2 0
-4 -4 -4 -10z"/>
<path d="M3238 1808 c-9 -24 12 -73 43 -97 l30 -24 -16 39 c-25 59 -51 98 -57
82z"/>
<path d="M101 1734 c0 -11 3 -14 6 -6 3 7 2 16 -1 19 -3 4 -6 -2 -5 -13z"/>
<path d="M421 1664 c0 -11 3 -14 6 -6 3 7 2 16 -1 19 -3 4 -6 -2 -5 -13z"/>
<path d="M3270 1653 c0 -6 4 -14 9 -17 4 -3 11 -19 14 -36 6 -27 27 -43 27
-20 0 6 -5 10 -11 10 -5 0 -8 4 -5 8 3 5 -4 21 -15 38 -10 16 -19 24 -19 17z"/>
<path d="M401 1594 c-7 -20 -11 -38 -8 -40 3 -3 10 11 17 31 16 47 8 55 -9 9z"/>
<path d="M2531 1594 c0 -11 3 -14 6 -6 3 7 2 16 -1 19 -3 4 -6 -2 -5 -13z"/>
<path d="M233 1593 c9 -2 17 -8 17 -12 0 -6 33 -7 50 -1 9 3 -45 18 -65 18
-16 0 -17 -1 -2 -5z"/>
<path d="M0 1557 c0 -30 4 -37 31 -46 18 -6 34 -11 35 -11 2 0 4 14 4 30 0 28
-20 45 -20 18 0 -7 -12 0 -25 15 l-25 28 0 -34z"/>
<path d="M280 1553 c0 -5 5 -15 10 -23 8 -12 10 -11 10 8 0 12 -4 22 -10 22
-5 0 -10 -3 -10 -7z"/>
<path d="M3310 1555 c0 -5 5 -17 10 -25 5 -8 10 -10 10 -5 0 6 -5 17 -10 25
-5 8 -10 11 -10 5z"/>
<path d="M380 1531 c0 -25 -122 -257 -177 -335 -59 -85 -156 -202 -185 -224
-16 -12 -18 -36 -18 -263 l0 -251 28 6 c131 28 320 39 376 22 22 -7 27 -6 21
3 -4 8 1 14 14 18 12 3 21 13 21 22 0 10 3 20 6 24 8 7 57 -9 118 -39 40 -20
47 -21 42 -7 -4 9 -19 57 -34 106 -18 63 -32 91 -44 95 -10 2 -18 8 -18 12 0
5 -15 12 -32 16 -18 3 -43 13 -55 21 -12 8 -32 13 -45 11 -16 -2 -26 4 -33 19
-5 12 -20 25 -33 28 -12 3 -20 10 -17 15 3 6 -5 14 -19 19 -24 10 -29 19 -41
79 -4 20 -3 32 4 32 6 0 11 12 11 28 0 15 7 36 15 46 19 25 19 36 -1 36 -11 0
-14 6 -9 21 4 12 8 32 10 45 3 33 40 70 74 77 25 5 27 10 25 42 -3 33 -26 70
-37 59 -11 -11 -12 69 -1 91 20 38 46 126 40 132 -3 4 -6 1 -6 -6z"/>
<path d="M90 1495 c-1 -16 -4 -24 -7 -17 -3 9 -9 10 -17 2 -9 -7 -18 -4 -31
10 -10 11 -21 20 -25 20 -4 0 -8 -45 -8 -99 -1 -108 -2 -106 53 -80 13 7 36 7
62 1 38 -9 44 -7 66 17 13 14 33 39 43 55 16 26 17 29 1 38 -14 7 -15 13 -6
29 15 29 5 47 -25 47 -31 0 -35 -18 -6 -25 21 -6 28 -23 10 -23 -7 0 -8 -6 -2
-17 8 -13 4 -21 -15 -37 -27 -21 -93 -33 -93 -17 0 10 38 24 58 22 13 -2 16
27 6 53 -3 9 -13 16 -21 16 -9 0 -22 8 -29 18 -12 15 -13 14 -14 -13z"/>
<path d="M257 1473 c-4 -3 -7 -11 -7 -17 0 -6 5 -5 12 2 6 6 9 14 7 17 -3 3
-9 2 -12 -2z"/>
<path d="M3020 1465 c0 -22 30 -66 41 -59 14 8 10 -12 -8 -45 -21 -36 -15 -46
19 -28 19 10 23 17 17 32 -4 11 -8 33 -8 49 -1 21 -5 27 -16 22 -10 -3 -17 3
-21 19 -7 27 -24 34 -24 10z"/>
<path d="M3346 1425 c3 -22 12 -76 19 -120 14 -87 17 -286 6 -377 -4 -32 -4
-58 0 -58 11 0 19 97 19 228 0 122 -20 298 -40 343 -9 20 -9 17 -4 -16z"/>
<path d="M3120 1411 c0 -17 4 -31 10 -31 5 0 7 -7 4 -15 -4 -8 -1 -15 6 -15 7
0 10 15 8 42 -4 49 -28 66 -28 19z"/>
<path d="M940 1401 c0 -6 5 -13 10 -16 6 -3 10 1 10 9 0 9 -4 16 -10 16 -5 0
-10 -4 -10 -9z"/>
<path d="M935 1360 c3 -5 8 -10 11 -10 2 0 4 5 4 10 0 6 -5 10 -11 10 -5 0 -7
-4 -4 -10z"/>
<path d="M3161 1360 c3 -20 -20 -68 -38 -74 -11 -5 -11 -1 -2 16 10 18 9 20
-5 15 -8 -3 -18 -2 -21 3 -10 16 -28 11 -22 -5 4 -8 1 -17 -5 -21 -7 -4 -8 -3
-4 4 10 17 -12 15 -45 -5 -20 -12 -27 -23 -23 -35 3 -10 1 -18 -5 -18 -6 0
-11 -8 -12 -17 -1 -17 -19 29 -21 52 -2 13 -48 16 -48 3 0 -5 5 -6 10 -3 6 3
10 1 10 -5 0 -6 -6 -13 -14 -16 -14 -5 -14 -13 1 -51 3 -10 7 -22 7 -28 2 -19
38 -17 57 3 22 24 91 37 148 27 l40 -7 7 39 c12 59 10 111 -5 125 -10 11 -12
10 -10 -2z m-111 -90 c0 -5 -2 -10 -4 -10 -3 0 -8 5 -11 10 -3 6 -1 10 4 10 6
0 11 -4 11 -10z m-100 -30 c0 -5 -4 -10 -10 -10 -5 0 -10 5 -10 10 0 6 5 10
10 10 6 0 10 -4 10 -10z"/>
<path d="M87 1287 c-15 -19 -41 -40 -57 -47 -25 -10 -30 -18 -30 -47 l0 -34
36 38 c55 57 86 101 82 113 -2 6 -16 -4 -31 -23z"/>
<path d="M880 1216 c0 -26 14 -33 38 -17 11 6 11 10 0 18 -32 24 -38 24 -38
-1z"/>
<path d="M2871 1154 c0 -11 3 -14 6 -6 3 7 2 16 -1 19 -3 4 -6 -2 -5 -13z"/>
<path d="M797 1121 c6 -23 -15 -38 -23 -17 -3 8 -12 12 -20 9 -8 -3 -14 0 -14
6 0 8 -4 8 -14 -1 -12 -11 -8 -16 22 -32 24 -12 37 -15 40 -7 2 6 10 11 18 11
8 0 14 10 14 25 0 15 -6 25 -14 25 -9 0 -12 -7 -9 -19z"/>
<path d="M905 1129 c-4 -5 -18 -14 -31 -19 -24 -9 -33 -30 -14 -30 6 0 10 -7
10 -15 0 -8 14 -22 30 -30 17 -9 30 -21 29 -28 -1 -7 -1 -19 0 -27 1 -12 4
-12 12 3 12 21 29 22 29 2 0 -8 8 -15 19 -15 11 0 21 -9 25 -22 6 -22 7 -22
20 -5 15 20 38 22 65 5 15 -9 23 -9 35 1 14 11 14 15 1 28 -8 8 -15 21 -15 29
0 8 -7 14 -15 14 -8 0 -23 8 -33 18 -9 9 -30 23 -46 30 -17 7 -46 26 -67 43
-41 32 -45 34 -54 18z m133 -88 c3 -8 0 -11 -7 -7 -6 4 -11 3 -11 -1 0 -5 -9
-9 -20 -10 -17 -2 -18 1 -7 18 13 22 38 22 45 0z"/>
<path d="M680 1116 c0 -8 5 -18 10 -21 6 -3 10 3 10 14 0 12 -4 21 -10 21 -5
0 -10 -6 -10 -14z"/>
<path d="M805 1060 c3 -5 8 -10 11 -10 2 0 4 5 4 10 0 6 -5 10 -11 10 -5 0 -7
-4 -4 -10z"/>
<path d="M695 1050 c-9 -15 4 -30 20 -23 9 3 15 -1 15 -11 0 -9 3 -15 8 -14
20 4 81 -34 84 -53 3 -20 4 -20 26 5 l22 26 -27 13 c-16 6 -34 17 -41 24 -7 7
-19 13 -26 13 -8 0 -19 7 -26 15 -14 17 -46 20 -55 5z"/>
<path d="M550 960 c0 -14 5 -32 10 -40 8 -12 10 -10 10 10 0 14 -5 32 -10 40
-8 12 -10 10 -10 -10z"/>
<path d="M1840 966 c0 -3 9 -10 20 -16 11 -6 20 -8 20 -6 0 3 -9 10 -20 16
-11 6 -20 8 -20 6z"/>
<path d="M880 935 c0 -8 2 -15 4 -15 2 0 6 7 10 15 3 8 1 15 -4 15 -6 0 -10
-7 -10 -15z"/>
<path d="M980 920 c-12 -8 -10 -10 8 -10 13 0 20 4 17 10 -7 12 -6 12 -25 0z"/>
<path d="M1680 926 c0 -2 7 -9 15 -16 9 -7 15 -8 15 -2 0 5 -7 12 -15 16 -8 3
-15 4 -15 2z"/>
<path d="M3356 823 c-13 -73 -59 -219 -97 -305 -20 -49 -34 -88 -31 -88 10 0
29 40 69 145 37 98 85 285 73 285 -4 0 -11 -17 -14 -37z"/>
<path d="M905 828 c-10 -26 1 -48 25 -48 25 0 25 11 1 41 -18 22 -20 22 -26 7z"/>
<path d="M3377 757 c-31 -105 -58 -180 -78 -220 -10 -22 -19 -44 -19 -50 0
-13 -9 -32 -52 -108 -44 -78 -53 -89 -65 -84 -7 2 -29 -17 -48 -43 -70 -93
-81 -107 -152 -179 -40 -40 -69 -73 -65 -73 21 0 179 176 230 255 14 22 27 34
29 28 5 -15 -91 -145 -164 -221 -29 -31 -53 -57 -53 -59 0 -2 77 -3 171 -3
111 0 168 3 164 10 -3 6 6 15 20 20 32 12 57 35 47 44 -3 4 1 4 11 0 10 -3 17
-1 17 5 0 6 -5 11 -11 11 -8 0 -8 4 0 13 8 10 7 17 -1 25 -9 9 -7 12 7 12 11
0 16 4 10 8 -14 10 -17 32 -5 32 6 0 10 6 9 13 -3 25 1 38 11 32 6 -4 10 5 10
20 0 25 -34 49 -52 38 -5 -2 -9 2 -10 9 -4 36 -3 44 6 49 5 4 -1 12 -13 18
-11 7 -21 22 -21 34 0 18 -2 19 -10 7 -8 -12 -10 -11 -10 7 0 26 26 22 33 -5
3 -10 5 -5 6 11 1 26 12 32 49 28 6 -1 12 3 12 9 0 5 -9 10 -20 10 -11 0 -23
7 -26 15 -4 8 -13 15 -21 15 -8 0 -13 4 -11 8 2 4 16 45 32 90 16 46 34 79 39
75 6 -3 7 -1 3 5 -4 7 -2 38 5 71 16 82 8 93 -14 18z m-47 -681 c0 -3 -4 -8
-10 -11 -5 -3 -10 -1 -10 4 0 6 5 11 10 11 6 0 10 -2 10 -4z"/>
<path d="M1885 760 c3 -5 13 -10 21 -10 8 0 12 5 9 10 -3 6 -13 10 -21 10 -8
0 -12 -4 -9 -10z"/>
<path d="M2210 649 c0 -5 5 -7 10 -4 6 3 10 8 10 11 0 2 -4 4 -10 4 -5 0 -10
-5 -10 -11z"/>
<path d="M630 595 c0 -5 5 -17 10 -25 5 -8 10 -10 10 -5 0 6 -5 17 -10 25 -5
8 -10 11 -10 5z"/>
<path d="M870 585 c0 -8 8 -15 18 -14 10 0 12 3 4 6 -6 2 -10 9 -6 14 3 5 0 9
-5 9 -6 0 -11 -7 -11 -15z"/>
<path d="M2223 579 c-1 -11 5 -19 13 -19 10 0 13 -6 9 -19 -3 -11 0 -21 8 -24
11 -4 14 5 13 38 -1 36 -4 42 -21 42 -13 0 -21 -6 -22 -18z"/>
<path d="M2451 549 c-13 -39 -13 -39 0 -39 5 0 7 5 3 11 -5 8 5 9 34 4 27 -4
42 -3 48 6 5 9 2 10 -9 6 -15 -6 -19 -1 -16 19 1 9 -23 24 -38 24 -6 0 -16
-14 -22 -31z"/>
<path d="M656 530 c3 -14 11 -32 16 -40 6 -10 7 -7 2 10 -3 14 -11 32 -16 40
-6 10 -7 7 -2 -10z"/>
<path d="M2596 465 c-3 -9 0 -15 9 -15 16 0 20 16 6 24 -5 3 -11 -1 -15 -9z"/>
<path d="M1565 450 c-3 -5 -1 -10 4 -10 6 0 11 5 11 10 0 6 -2 10 -4 10 -3 0
-8 -4 -11 -10z"/>
<path d="M2935 440 c-3 -5 -3 -10 2 -10 4 0 0 -5 -10 -11 -9 -5 -22 -7 -29 -3
-7 4 -8 3 -4 -4 5 -8 -3 -12 -23 -12 -17 0 -31 -4 -31 -9 0 -12 -39 -21 -45
-11 -3 5 3 11 12 13 14 4 14 5 -3 6 -12 0 -25 -6 -28 -15 -7 -19 2 -37 15 -28
6 3 15 -7 21 -23 l11 -29 26 24 c14 14 43 35 64 48 26 17 37 31 37 49 0 27 -5
31 -15 15z"/>
<path d="M2995 410 c-3 -5 -2 -10 4 -10 5 0 13 5 16 10 3 6 2 10 -4 10 -5 0
-13 -4 -16 -10z"/>
<path d="M3197 385 c-9 -19 -15 -35 -13 -35 2 0 13 16 25 35 11 19 17 35 13
35 -5 0 -16 -16 -25 -35z"/>
<path d="M730 371 c0 -6 4 -13 10 -16 6 -3 7 1 4 9 -7 18 -14 21 -14 7z"/>
<path d="M2170 370 c0 -5 7 -10 15 -10 8 0 15 5 15 10 0 6 -7 10 -15 10 -8 0
-15 -4 -15 -10z"/>
<path d="M2437 343 c-4 -3 -7 -15 -7 -25 0 -10 -7 -21 -15 -24 -8 -4 -15 -10
-15 -14 0 -5 14 -1 31 7 19 10 34 12 38 6 7 -11 41 -13 41 -3 0 11 -23 27 -45
32 -11 2 -19 10 -17 16 2 13 -1 15 -11 5z"/>
<path d="M2560 339 c0 -5 9 -9 20 -9 11 0 20 2 20 4 0 2 -9 6 -20 9 -11 3 -20
1 -20 -4z"/>
<path d="M3165 329 c-4 -6 -5 -12 -2 -15 2 -3 7 2 10 11 7 17 1 20 -8 4z"/>
<path d="M770 300 c6 -11 13 -20 16 -20 2 0 0 9 -6 20 -6 11 -13 20 -16 20 -2
0 0 -9 6 -20z"/>
<path d="M2681 281 c-8 -6 -9 -11 -3 -15 6 -3 14 -1 17 5 9 14 2 20 -14 10z"/>
<path d="M2809 273 c-13 -16 -12 -17 4 -4 9 7 17 15 17 17 0 8 -8 3 -21 -13z"/>
<path d="M2110 258 c0 -10 6 -18 13 -18 8 0 8 -3 2 -8 -17 -12 -12 -36 9 -40
13 -3 16 0 10 9 -18 30 -13 56 14 66 26 10 26 11 -10 10 -30 0 -38 -4 -38 -19z"/>
<path d="M2514 246 c3 -11 0 -26 -5 -33 -8 -9 -6 -19 5 -35 9 -12 16 -33 16
-45 0 -13 5 -23 11 -23 5 0 7 4 4 10 -3 5 0 10 8 10 8 0 22 9 32 20 10 11 24
20 32 20 7 0 13 7 13 16 0 12 -6 15 -25 10 -14 -4 -25 -2 -25 4 0 5 3 9 8 8
11 -4 14 5 6 25 -6 17 -8 17 -25 1 -11 -9 -19 -23 -19 -31 0 -7 -4 -13 -8 -13
-19 0 -19 13 -2 43 l19 32 -25 0 c-20 0 -24 -4 -20 -19z m64 -83 c-4 -22 -22
-20 -26 1 -2 10 3 16 13 16 10 0 15 -7 13 -17z"/>
<path d="M2420 250 c0 -5 9 -10 19 -10 11 0 23 5 26 10 4 6 -5 10 -19 10 -14
0 -26 -4 -26 -10z"/>
<path d="M2694 233 c3 -30 11 -36 35 -28 25 8 18 25 -9 25 -10 0 -21 6 -24 13
-2 6 -4 2 -2 -10z"/>
<path d="M2774 225 c-10 -8 -14 -15 -8 -15 6 0 17 7 24 15 16 19 9 19 -16 0z"/>
<path d="M650 227 c0 -3 4 -17 10 -32 8 -21 6 -29 -10 -42 -17 -15 -18 -19 -4
-34 8 -9 14 -20 13 -25 -1 -5 0 -18 1 -29 2 -17 3 -17 10 5 7 22 8 20 10 -15
1 -22 2 -43 1 -47 0 -5 22 -8 50 -8 28 0 49 3 47 8 -27 52 -61 128 -60 134 1
3 -5 12 -13 18 -8 7 -15 18 -15 25 0 6 -9 20 -20 30 -11 10 -20 15 -20 12z"/>
<path d="M829 213 c12 -24 31 -39 31 -25 0 5 -10 17 -21 28 -22 19 -22 19 -10
-3z"/>
<path d="M2164 184 c3 -9 6 -18 6 -20 0 -3 5 -2 10 1 16 10 12 35 -6 35 -11 0
-14 -5 -10 -16z"/>
<path d="M2400 161 c0 -5 5 -13 10 -16 6 -3 10 -2 10 4 0 5 -4 13 -10 16 -5 3
-10 2 -10 -4z"/>
<path d="M2125 139 c-4 -6 -2 -16 5 -22 10 -9 11 -9 6 0 -3 6 -1 13 6 15 9 3
9 6 1 11 -7 4 -15 2 -18 -4z"/>
<path d="M890 136 c0 -2 8 -10 18 -17 15 -13 16 -12 3 4 -13 16 -21 21 -21 13z"/>
<path d="M1337 133 c-14 -13 -6 -24 15 -21 27 4 36 28 11 28 -11 0 -23 -3 -26
-7z"/>
<path d="M2665 130 c-3 -6 1 -7 9 -4 18 7 21 14 7 14 -6 0 -13 -4 -16 -10z"/>
<path d="M1275 120 c-3 -5 3 -10 14 -10 12 0 21 5 21 10 0 6 -6 10 -14 10 -8
0 -18 -4 -21 -10z"/>
<path d="M1959 90 c-3 -20 -4 -25 -13 -38 -11 -17 -3 -24 18 -16 9 4 15 12 12
20 -3 7 0 14 6 16 6 2 8 10 4 16 -9 15 -26 16 -27 2z"/>
<path d="M1796 52 c6 -4 14 -14 17 -22 4 -10 6 -8 6 8 1 15 -5 22 -16 22 -11
0 -14 -3 -7 -8z"/>
<path d="M996 26 c3 -8 13 -17 22 -21 13 -5 13 -2 -3 15 -21 24 -26 25 -19 6z"/>
<path d="M1457 33 c-12 -12 -7 -21 14 -26 17 -5 18 -3 7 11 -7 9 -13 18 -14
20 0 1 -4 -1 -7 -5z"/>
<path d="M2017 33 c-10 -3 -16 -10 -14 -16 6 -20 24 -18 30 3 3 11 4 19 4 19
-1 -1 -10 -3 -20 -6z"/>
<path d="M2469 17 c15 -19 41 -23 41 -7 0 6 -4 10 -9 10 -5 0 -18 3 -28 7 -16
6 -16 5 -4 -10z"/>
</g>
</svg>
