<svg role="img" height="24" width="24" aria-hidden="true" class="Svg-sc-ytk21e-0 uPxdw IW3VCewLS9ZA_o_pcw1c" viewBox="0 0 24 24" data-encore-id="icon" xmlns="http://www.w3.org/2000/svg"><path d="M4.99 3h2.993v2H4.99v3H2.994V5H0V3h2.994V0h1.995v3zm7.288-.533a5.494 5.494 0 016.275 1.322 5.467 5.467 0 011.133 1.953c.18.532.33 1.474.277 2.378-.098 1.659-.8 3.02-1.749 4.156l-.432.52a.5.5 0 00.134.752l3.59 2.077A5.002 5.002 0 0124 19.955V22H4.99v-2.045a5 5 0 012.494-4.33l3.59-2.077a.5.5 0 00.133-.753l-.43-.518-.002-.001c-.949-1.135-1.65-2.497-1.749-4.156-.053-.904.097-1.846.277-2.378a5.468 5.468 0 011.133-1.953 5.505 5.505 0 011.842-1.322zM14.494 4a3.503 3.503 0 00-2.586 1.14 3.47 3.47 0 00-.715 1.245c-.092.272-.213.954-.174 1.617.066 1.124.536 2.092 1.287 2.99l.001.002.433.52a2.503 2.503 0 01-.669 3.767l-3.589 2.076a3.001 3.001 0 00-1.497 2.598V20h15.02v-.045a3.002 3.002 0 00-1.498-2.598l-3.589-2.076a2.503 2.503 0 01-.669-3.766l.433-.52.002-.003c.75-.898 1.22-1.866 1.287-2.99.039-.663-.082-1.345-.174-1.617-.163-.48-.4-.9-.715-1.245A3.51 3.51 0 0014.494 4z"></path></svg>